<svg width="60" height="60" viewBox="0 0 60 60" fill="none" xmlns="http://www.w3.org/2000/svg">
<path d="M47.273 16.8825C47.273 16.8825 42.3226 12.9525 36.4775 12.5L35.9485 13.5686C41.2362 14.8822 43.6581 16.7636 46.1936 19.0738C41.8255 16.812 37.5143 14.6913 30 14.6913C22.4857 14.6913 18.1709 16.812 13.8069 19.0738C16.3353 16.7636 19.2223 14.6753 24.0484 13.5686L23.523 12.5C17.3863 13.0894 12.7275 16.8825 12.7275 16.8825C12.7275 16.8825 7.19797 25.017 6.25 40.9858C11.8217 47.5086 20.2839 47.5595 20.2839 47.5595L22.0526 45.1665C19.0484 44.1066 15.6567 42.2114 12.727 38.795C16.2212 41.4763 21.4982 44.2729 30 44.2729C38.5018 44.2729 43.7747 41.4799 47.273 38.795C44.3398 42.2114 40.9481 44.1066 37.9474 45.1665L39.7161 47.5595C39.7161 47.5595 48.1748 47.5086 53.75 40.9858C52.7985 25.017 47.273 16.8825 47.273 16.8825ZM22.9828 36.6028C20.8946 36.6028 19.2046 34.6421 19.2046 32.2202C19.2046 29.8004 20.8951 27.8383 22.9828 27.8383C25.071 27.8383 26.7615 29.8004 26.7615 32.2202C26.7615 34.6426 25.071 36.6028 22.9828 36.6028ZM37.0172 36.6028C34.929 36.6028 33.2385 34.6421 33.2385 32.2202C33.2385 29.8004 34.929 27.8383 37.0172 27.8383C39.1049 27.8383 40.7954 29.8004 40.7954 32.2202C40.7954 34.6426 39.1013 36.6028 37.0172 36.6028Z" fill="white"/>
</svg>
