<svg width="1000" height="250" viewBox="0 0 1000 250" fill="none" xmlns="http://www.w3.org/2000/svg">
<rect width="1000" height="250" rx="30" fill="black"/>
<path d="M231.504 164.342C230.8 164.342 230.224 164.118 229.776 163.67C229.328 163.222 229.104 162.646 229.104 161.942V99.5418C229.104 98.8378 229.328 98.2618 229.776 97.8138C230.224 97.3658 230.8 97.1418 231.504 97.1418H256.944C264.944 97.1418 271.248 98.9978 275.856 102.71C280.464 106.358 282.768 111.638 282.768 118.55C282.768 123.222 281.648 127.126 279.408 130.262C277.168 133.398 274.16 135.734 270.384 137.27L283.92 161.27C284.112 161.654 284.208 162.006 284.208 162.326C284.208 162.838 284.016 163.318 283.632 163.766C283.248 164.15 282.768 164.342 282.192 164.342H271.536C270.384 164.342 269.52 164.054 268.944 163.478C268.368 162.838 267.952 162.262 267.696 161.75L255.984 139.766H244.368V161.942C244.368 162.646 244.144 163.222 243.696 163.67C243.248 164.118 242.672 164.342 241.968 164.342H231.504ZM244.368 127.574H256.656C260.176 127.574 262.768 126.774 264.432 125.174C266.16 123.574 267.024 121.334 267.024 118.454C267.024 115.574 266.192 113.302 264.528 111.638C262.864 109.974 260.24 109.142 256.656 109.142H244.368V127.574ZM296.942 164.342C296.238 164.342 295.662 164.118 295.214 163.67C294.766 163.222 294.542 162.646 294.542 161.942V99.5418C294.542 98.8378 294.766 98.2618 295.214 97.8138C295.662 97.3658 296.238 97.1418 296.942 97.1418H340.43C341.134 97.1418 341.71 97.3658 342.158 97.8138C342.606 98.2618 342.83 98.8378 342.83 99.5418V107.222C342.83 107.862 342.606 108.406 342.158 108.854C341.71 109.302 341.134 109.526 340.43 109.526H309.326V124.598H338.318C339.022 124.598 339.598 124.822 340.046 125.27C340.494 125.718 340.718 126.294 340.718 126.998V134.102C340.718 134.742 340.494 135.286 340.046 135.734C339.598 136.182 339.022 136.406 338.318 136.406H309.326V151.958H341.198C341.902 151.958 342.478 152.182 342.926 152.63C343.374 153.078 343.598 153.654 343.598 154.358V161.942C343.598 162.646 343.374 163.222 342.926 163.67C342.478 164.118 341.902 164.342 341.198 164.342H296.942ZM357.41 164.342C356.706 164.342 356.13 164.118 355.682 163.67C355.234 163.222 355.01 162.646 355.01 161.942V99.5418C355.01 98.8378 355.234 98.2618 355.682 97.8138C356.13 97.3658 356.706 97.1418 357.41 97.1418H368.066C368.77 97.1418 369.346 97.3658 369.794 97.8138C370.242 98.2618 370.466 98.8378 370.466 99.5418V151.478H400.226C400.93 151.478 401.506 151.702 401.954 152.15C402.402 152.598 402.626 153.174 402.626 153.878V161.942C402.626 162.646 402.402 163.222 401.954 163.67C401.506 164.118 400.93 164.342 400.226 164.342H357.41ZM413.848 164.342C413.144 164.342 412.568 164.118 412.12 163.67C411.672 163.222 411.448 162.646 411.448 161.942V99.5418C411.448 98.8378 411.672 98.2618 412.12 97.8138C412.568 97.3658 413.144 97.1418 413.848 97.1418H457.336C458.04 97.1418 458.616 97.3658 459.064 97.8138C459.512 98.2618 459.736 98.8378 459.736 99.5418V107.222C459.736 107.862 459.512 108.406 459.064 108.854C458.616 109.302 458.04 109.526 457.336 109.526H426.232V124.598H455.224C455.928 124.598 456.504 124.822 456.952 125.27C457.4 125.718 457.624 126.294 457.624 126.998V134.102C457.624 134.742 457.4 135.286 456.952 135.734C456.504 136.182 455.928 136.406 455.224 136.406H426.232V151.958H458.104C458.808 151.958 459.384 152.182 459.832 152.63C460.28 153.078 460.504 153.654 460.504 154.358V161.942C460.504 162.646 460.28 163.222 459.832 163.67C459.384 164.118 458.808 164.342 458.104 164.342H413.848ZM467.98 164.342C467.405 164.342 466.925 164.15 466.541 163.766C466.157 163.318 465.965 162.838 465.965 162.326C465.965 162.006 465.997 161.718 466.061 161.462L488.909 99.7338C489.101 99.0298 489.485 98.4218 490.061 97.9098C490.637 97.3978 491.437 97.1418 492.461 97.1418H504.749C505.773 97.1418 506.573 97.3978 507.149 97.9098C507.725 98.4218 508.109 99.0298 508.301 99.7338L531.149 161.462C531.213 161.718 531.245 162.006 531.245 162.326C531.245 162.838 531.053 163.318 530.669 163.766C530.285 164.15 529.805 164.342 529.229 164.342H519.245C518.285 164.342 517.581 164.118 517.133 163.67C516.685 163.222 516.397 162.806 516.269 162.422L512.141 151.67H485.069L480.941 162.422C480.813 162.806 480.525 163.222 480.077 163.67C479.629 164.118 478.925 164.342 477.965 164.342H467.98ZM488.621 139.286H508.493L498.605 111.638L488.621 139.286ZM562.671 165.302C556.527 165.302 551.375 164.406 547.215 162.614C543.119 160.822 540.015 158.486 537.903 155.606C535.791 152.726 534.671 149.654 534.543 146.39C534.543 145.878 534.735 145.43 535.119 145.046C535.503 144.598 535.983 144.374 536.559 144.374H546.831C547.663 144.374 548.303 144.566 548.751 144.95C549.199 145.27 549.615 145.686 549.999 146.198C550.447 147.286 551.151 148.342 552.111 149.366C553.135 150.39 554.511 151.254 556.239 151.958C557.967 152.598 560.111 152.918 562.671 152.918C566.831 152.918 569.935 152.246 571.983 150.902C574.095 149.558 575.151 147.734 575.151 145.43C575.151 143.766 574.575 142.422 573.423 141.398C572.335 140.374 570.575 139.446 568.143 138.614C565.775 137.782 562.607 136.886 558.639 135.926C553.839 134.902 549.743 133.59 546.351 131.99C543.023 130.326 540.495 128.214 538.767 125.654C537.103 123.03 536.271 119.798 536.271 115.958C536.271 112.118 537.327 108.726 539.439 105.782C541.551 102.774 544.527 100.438 548.367 98.7738C552.207 97.0458 556.783 96.1818 562.095 96.1818C566.383 96.1818 570.159 96.7578 573.423 97.9098C576.751 99.0618 579.503 100.566 581.679 102.422C583.919 104.278 585.615 106.262 586.767 108.374C587.919 110.486 588.527 112.534 588.591 114.518C588.591 115.03 588.399 115.51 588.015 115.958C587.631 116.342 587.151 116.534 586.575 116.534H575.823C575.183 116.534 574.607 116.406 574.095 116.15C573.583 115.894 573.167 115.446 572.847 114.806C572.463 113.142 571.311 111.702 569.391 110.486C567.535 109.206 565.103 108.566 562.095 108.566C558.959 108.566 556.463 109.142 554.607 110.294C552.815 111.446 551.919 113.206 551.919 115.574C551.919 117.11 552.367 118.422 553.263 119.51C554.223 120.534 555.791 121.462 557.967 122.294C560.207 123.062 563.151 123.926 566.799 124.886C572.431 126.038 577.007 127.414 580.527 129.014C584.047 130.614 586.639 132.694 588.303 135.254C589.967 137.75 590.799 140.918 590.799 144.758C590.799 149.046 589.583 152.726 587.151 155.798C584.783 158.87 581.487 161.238 577.263 162.902C573.103 164.502 568.239 165.302 562.671 165.302ZM603.504 164.342C602.8 164.342 602.224 164.118 601.776 163.67C601.328 163.222 601.104 162.646 601.104 161.942V99.5418C601.104 98.8378 601.328 98.2618 601.776 97.8138C602.224 97.3658 602.8 97.1418 603.504 97.1418H646.992C647.696 97.1418 648.272 97.3658 648.72 97.8138C649.168 98.2618 649.392 98.8378 649.392 99.5418V107.222C649.392 107.862 649.168 108.406 648.72 108.854C648.272 109.302 647.696 109.526 646.992 109.526H615.888V124.598H644.88C645.584 124.598 646.16 124.822 646.608 125.27C647.056 125.718 647.28 126.294 647.28 126.998V134.102C647.28 134.742 647.056 135.286 646.608 135.734C646.16 136.182 645.584 136.406 644.88 136.406H615.888V151.958H647.76C648.464 151.958 649.04 152.182 649.488 152.63C649.936 153.078 650.16 153.654 650.16 154.358V161.942C650.16 162.646 649.936 163.222 649.488 163.67C649.04 164.118 648.464 164.342 647.76 164.342H603.504ZM685.765 165.302C679.621 165.302 674.469 164.406 670.309 162.614C666.213 160.822 663.109 158.486 660.997 155.606C658.885 152.726 657.765 149.654 657.637 146.39C657.637 145.878 657.829 145.43 658.213 145.046C658.597 144.598 659.077 144.374 659.653 144.374H669.925C670.757 144.374 671.397 144.566 671.845 144.95C672.293 145.27 672.709 145.686 673.093 146.198C673.541 147.286 674.245 148.342 675.205 149.366C676.229 150.39 677.605 151.254 679.333 151.958C681.061 152.598 683.205 152.918 685.765 152.918C689.925 152.918 693.029 152.246 695.077 150.902C697.189 149.558 698.245 147.734 698.245 145.43C698.245 143.766 697.669 142.422 696.517 141.398C695.429 140.374 693.669 139.446 691.237 138.614C688.869 137.782 685.701 136.886 681.733 135.926C676.933 134.902 672.837 133.59 669.445 131.99C666.117 130.326 663.589 128.214 661.861 125.654C660.197 123.03 659.365 119.798 659.365 115.958C659.365 112.118 660.421 108.726 662.533 105.782C664.645 102.774 667.621 100.438 671.461 98.7738C675.301 97.0458 679.877 96.1818 685.189 96.1818C689.477 96.1818 693.253 96.7578 696.517 97.9098C699.845 99.0618 702.597 100.566 704.773 102.422C707.013 104.278 708.709 106.262 709.861 108.374C711.013 110.486 711.621 112.534 711.685 114.518C711.685 115.03 711.493 115.51 711.109 115.958C710.725 116.342 710.245 116.534 709.669 116.534H698.917C698.277 116.534 697.701 116.406 697.189 116.15C696.677 115.894 696.261 115.446 695.941 114.806C695.557 113.142 694.405 111.702 692.485 110.486C690.629 109.206 688.197 108.566 685.189 108.566C682.053 108.566 679.557 109.142 677.701 110.294C675.909 111.446 675.013 113.206 675.013 115.574C675.013 117.11 675.461 118.422 676.357 119.51C677.317 120.534 678.885 121.462 681.061 122.294C683.301 123.062 686.245 123.926 689.893 124.886C695.525 126.038 700.101 127.414 703.621 129.014C707.141 130.614 709.733 132.694 711.397 135.254C713.061 137.75 713.893 140.918 713.893 144.758C713.893 149.046 712.677 152.726 710.245 155.798C707.877 158.87 704.581 161.238 700.357 162.902C696.197 164.502 691.333 165.302 685.765 165.302Z" fill="white"/>
<path d="M117 50C158.437 50 192 84.4114 192 126.897C191.996 143.009 187.064 158.714 177.898 171.801C168.733 184.889 155.795 194.7 140.906 199.853C137.156 200.622 135.75 198.219 135.75 196.2C135.75 193.605 135.844 185.339 135.844 175.054C135.844 167.845 133.5 163.231 130.781 160.828C147.469 158.905 165 152.369 165 122.86C165 114.401 162.094 107.577 157.312 102.194C158.062 100.271 160.687 92.3895 156.562 81.8161C156.562 81.8161 150.281 79.7015 135.938 89.6981C129.938 87.9679 123.563 87.1028 117.188 87.1028C110.813 87.1028 104.438 87.9679 98.4375 89.6981C84.0938 79.7976 77.8125 81.8161 77.8125 81.8161C73.6875 92.3895 76.3125 100.271 77.0625 102.194C72.2813 107.577 69.375 114.497 69.375 122.86C69.375 152.273 86.8125 158.905 103.5 160.828C101.344 162.75 99.375 166.115 98.7188 171.113C94.4063 173.131 83.625 176.399 76.875 164.769C75.4688 162.462 71.25 156.791 65.3438 156.887C59.0625 156.983 62.8125 160.539 65.4375 161.981C68.625 163.808 72.2813 170.632 73.125 172.843C74.625 177.168 79.5 185.435 98.3438 181.878C98.3438 188.319 98.4375 194.374 98.4375 196.2C98.4375 198.219 97.0313 200.526 93.2813 199.853C78.3435 194.755 65.3506 184.964 56.1458 171.869C46.9411 158.773 41.9917 143.039 42 126.897C42 84.4114 75.5625 50 117 50Z" fill="white"/>
</svg>
