<svg width="1000" height="250" viewBox="0 0 1000 250" fill="none" xmlns="http://www.w3.org/2000/svg">
<rect width="1000" height="250" rx="30" fill="black"/>
<rect width="1000" height="250" rx="30" fill="black"/>
<path d="M231.504 164.342C230.8 164.342 230.224 164.118 229.776 163.67C229.328 163.222 229.104 162.646 229.104 161.942V99.5418C229.104 98.8378 229.328 98.2618 229.776 97.8138C230.224 97.3658 230.8 97.1418 231.504 97.1418H260.016C265.328 97.1418 269.68 97.9098 273.072 99.4458C276.464 100.982 278.96 103.158 280.56 105.974C282.224 108.79 283.056 112.086 283.056 115.862C283.056 118.23 282.608 120.31 281.712 122.102C280.88 123.894 279.824 125.366 278.544 126.518C277.328 127.67 276.144 128.534 274.992 129.11C277.488 130.262 279.664 132.182 281.52 134.87C283.44 137.494 284.4 140.63 284.4 144.278C284.4 148.31 283.504 151.83 281.712 154.838C279.92 157.846 277.264 160.182 273.744 161.846C270.224 163.51 265.936 164.342 260.88 164.342H231.504ZM244.368 153.11H259.056C262.192 153.11 264.56 152.246 266.16 150.518C267.76 148.726 268.56 146.614 268.56 144.182C268.56 141.686 267.728 139.606 266.064 137.942C264.464 136.214 262.128 135.35 259.056 135.35H244.368V153.11ZM244.368 124.31H258.192C261.2 124.31 263.44 123.574 264.912 122.102C266.448 120.566 267.216 118.614 267.216 116.246C267.216 113.878 266.448 111.99 264.912 110.582C263.44 109.11 261.2 108.374 258.192 108.374H244.368V124.31ZM322.542 165.302C316.718 165.302 311.694 164.342 307.47 162.422C303.246 160.502 299.95 157.622 297.582 153.782C295.214 149.878 293.934 144.982 293.742 139.094C293.678 136.342 293.646 133.622 293.646 130.934C293.646 128.182 293.678 125.398 293.742 122.582C293.934 116.822 295.214 111.99 297.582 108.086C300.014 104.118 303.342 101.142 307.566 99.1578C311.854 97.1738 316.846 96.1818 322.542 96.1818C328.174 96.1818 333.102 97.1738 337.326 99.1578C341.614 101.142 344.974 104.118 347.406 108.086C349.838 111.99 351.118 116.822 351.246 122.582C351.374 125.398 351.438 128.182 351.438 130.934C351.438 133.622 351.374 136.342 351.246 139.094C351.054 144.982 349.774 149.878 347.406 153.782C345.038 157.622 341.742 160.502 337.518 162.422C333.294 164.342 328.302 165.302 322.542 165.302ZM322.542 152.918C326.254 152.918 329.294 151.798 331.662 149.558C334.094 147.254 335.374 143.606 335.502 138.614C335.63 135.798 335.694 133.174 335.694 130.742C335.694 128.246 335.63 125.622 335.502 122.87C335.438 119.542 334.83 116.822 333.678 114.71C332.526 112.598 330.99 111.062 329.07 110.102C327.214 109.078 325.038 108.566 322.542 108.566C320.046 108.566 317.838 109.078 315.918 110.102C313.998 111.062 312.462 112.598 311.31 114.71C310.222 116.822 309.614 119.542 309.486 122.87C309.422 125.622 309.39 128.246 309.39 130.742C309.39 133.174 309.422 135.798 309.486 138.614C309.678 143.606 310.958 147.254 313.326 149.558C315.694 151.798 318.766 152.918 322.542 152.918ZM390.042 165.302C384.218 165.302 379.194 164.342 374.97 162.422C370.746 160.502 367.45 157.622 365.082 153.782C362.714 149.878 361.434 144.982 361.242 139.094C361.178 136.342 361.146 133.622 361.146 130.934C361.146 128.182 361.178 125.398 361.242 122.582C361.434 116.822 362.714 111.99 365.082 108.086C367.514 104.118 370.842 101.142 375.066 99.1578C379.354 97.1738 384.346 96.1818 390.042 96.1818C395.674 96.1818 400.602 97.1738 404.826 99.1578C409.114 101.142 412.474 104.118 414.906 108.086C417.338 111.99 418.618 116.822 418.746 122.582C418.874 125.398 418.938 128.182 418.938 130.934C418.938 133.622 418.874 136.342 418.746 139.094C418.554 144.982 417.274 149.878 414.906 153.782C412.538 157.622 409.242 160.502 405.018 162.422C400.794 164.342 395.802 165.302 390.042 165.302ZM390.042 152.918C393.754 152.918 396.794 151.798 399.162 149.558C401.594 147.254 402.874 143.606 403.002 138.614C403.13 135.798 403.194 133.174 403.194 130.742C403.194 128.246 403.13 125.622 403.002 122.87C402.938 119.542 402.33 116.822 401.178 114.71C400.026 112.598 398.49 111.062 396.57 110.102C394.714 109.078 392.538 108.566 390.042 108.566C387.546 108.566 385.338 109.078 383.418 110.102C381.498 111.062 379.962 112.598 378.81 114.71C377.722 116.822 377.114 119.542 376.986 122.87C376.922 125.622 376.89 128.246 376.89 130.742C376.89 133.174 376.922 135.798 376.986 138.614C377.178 143.606 378.458 147.254 380.826 149.558C383.194 151.798 386.266 152.918 390.042 152.918ZM455.046 165.302C448.902 165.302 443.75 164.406 439.59 162.614C435.494 160.822 432.39 158.486 430.278 155.606C428.166 152.726 427.046 149.654 426.918 146.39C426.918 145.878 427.11 145.43 427.494 145.046C427.878 144.598 428.358 144.374 428.934 144.374H439.206C440.038 144.374 440.678 144.566 441.126 144.95C441.574 145.27 441.99 145.686 442.374 146.198C442.822 147.286 443.526 148.342 444.486 149.366C445.51 150.39 446.886 151.254 448.614 151.958C450.342 152.598 452.486 152.918 455.046 152.918C459.206 152.918 462.31 152.246 464.358 150.902C466.47 149.558 467.526 147.734 467.526 145.43C467.526 143.766 466.95 142.422 465.798 141.398C464.71 140.374 462.95 139.446 460.518 138.614C458.15 137.782 454.982 136.886 451.014 135.926C446.214 134.902 442.118 133.59 438.726 131.99C435.398 130.326 432.87 128.214 431.142 125.654C429.478 123.03 428.646 119.798 428.646 115.958C428.646 112.118 429.702 108.726 431.814 105.782C433.926 102.774 436.902 100.438 440.742 98.7738C444.582 97.0458 449.158 96.1818 454.47 96.1818C458.758 96.1818 462.534 96.7578 465.798 97.9098C469.126 99.0618 471.878 100.566 474.054 102.422C476.294 104.278 477.99 106.262 479.142 108.374C480.294 110.486 480.902 112.534 480.966 114.518C480.966 115.03 480.774 115.51 480.39 115.958C480.006 116.342 479.526 116.534 478.95 116.534H468.198C467.558 116.534 466.982 116.406 466.47 116.15C465.958 115.894 465.542 115.446 465.222 114.806C464.838 113.142 463.686 111.702 461.766 110.486C459.91 109.206 457.478 108.566 454.47 108.566C451.334 108.566 448.838 109.142 446.982 110.294C445.19 111.446 444.294 113.206 444.294 115.574C444.294 117.11 444.742 118.422 445.638 119.51C446.598 120.534 448.166 121.462 450.342 122.294C452.582 123.062 455.526 123.926 459.174 124.886C464.806 126.038 469.382 127.414 472.902 129.014C476.422 130.614 479.014 132.694 480.678 135.254C482.342 137.75 483.174 140.918 483.174 144.758C483.174 149.046 481.958 152.726 479.526 155.798C477.158 158.87 473.862 161.238 469.638 162.902C465.478 164.502 460.614 165.302 455.046 165.302ZM510.007 164.342C509.303 164.342 508.727 164.118 508.279 163.67C507.831 163.222 507.607 162.646 507.607 161.942V110.486H490.135C489.495 110.486 488.951 110.262 488.503 109.814C488.055 109.366 487.831 108.822 487.831 108.182V99.5418C487.831 98.8378 488.055 98.2618 488.503 97.8138C488.951 97.3658 489.495 97.1418 490.135 97.1418H540.439C541.143 97.1418 541.719 97.3658 542.167 97.8138C542.615 98.2618 542.839 98.8378 542.839 99.5418V108.182C542.839 108.822 542.615 109.366 542.167 109.814C541.719 110.262 541.143 110.486 540.439 110.486H523.063V161.942C523.063 162.646 522.839 163.222 522.391 163.67C521.943 164.118 521.367 164.342 520.663 164.342H510.007ZM571.945 164.342C571.241 164.342 570.665 164.118 570.217 163.67C569.769 163.222 569.545 162.646 569.545 161.942V140.822L547.081 100.214C547.017 100.022 546.953 99.8618 546.889 99.7338C546.825 99.5418 546.793 99.3498 546.793 99.1578C546.793 98.6458 546.985 98.1978 547.369 97.8138C547.817 97.3658 548.297 97.1418 548.809 97.1418H558.985C559.881 97.1418 560.585 97.3658 561.097 97.8138C561.609 98.2618 561.961 98.6778 562.153 99.0618L577.225 125.462L592.297 99.0618C592.489 98.6778 592.841 98.2618 593.353 97.8138C593.865 97.3658 594.569 97.1418 595.465 97.1418H605.641C606.153 97.1418 606.601 97.3658 606.985 97.8138C607.433 98.1978 607.657 98.6458 607.657 99.1578C607.657 99.3498 607.625 99.5418 607.561 99.7338C607.497 99.8618 607.433 100.022 607.369 100.214L584.905 140.822V161.942C584.905 162.646 584.681 163.222 584.233 163.67C583.785 164.118 583.209 164.342 582.505 164.342H571.945Z" fill="white"/>
<path d="M70.1904 136.858L90.9395 65H122.827L116.399 87.2767C116.335 87.404 116.271 87.5313 116.208 87.6586L99.2774 146.469H115.062C108.443 162.954 103.287 175.874 99.5956 185.231C70.445 184.912 62.2981 164.036 69.4266 139.341M99.7229 185.294L138.166 129.984H121.872L136.066 94.5325C160.379 97.0785 171.836 116.236 165.089 139.404C157.897 164.29 128.746 185.294 100.359 185.294C100.105 185.294 99.9139 185.294 99.7229 185.294Z" fill="white"/>
</svg>
