<svg width="1000" height="250" viewBox="0 0 1000 250" fill="none" xmlns="http://www.w3.org/2000/svg">
<rect width="1000" height="250" rx="30" fill="black"/>
<path d="M231.504 164.342C230.8 164.342 230.224 164.118 229.776 163.67C229.328 163.222 229.104 162.646 229.104 161.942V99.5418C229.104 98.8378 229.328 98.2618 229.776 97.8138C230.224 97.3658 230.8 97.1418 231.504 97.1418H242.16C242.864 97.1418 243.44 97.3658 243.888 97.8138C244.336 98.2618 244.56 98.8378 244.56 99.5418V151.478H274.32C275.024 151.478 275.6 151.702 276.048 152.15C276.496 152.598 276.72 153.174 276.72 153.878V161.942C276.72 162.646 276.496 163.222 276.048 163.67C275.6 164.118 275.024 164.342 274.32 164.342H231.504ZM287.942 164.342C287.238 164.342 286.662 164.118 286.214 163.67C285.766 163.222 285.542 162.646 285.542 161.942V99.5418C285.542 98.8378 285.766 98.2618 286.214 97.8138C286.662 97.3658 287.238 97.1418 287.942 97.1418H298.79C299.494 97.1418 300.07 97.3658 300.518 97.8138C300.966 98.2618 301.19 98.8378 301.19 99.5418V161.942C301.19 162.646 300.966 163.222 300.518 163.67C300.07 164.118 299.494 164.342 298.79 164.342H287.942ZM342.042 165.302C336.026 165.302 330.906 164.31 326.682 162.326C322.522 160.278 319.29 157.334 316.986 153.494C314.682 149.59 313.402 144.854 313.146 139.286C313.082 136.662 313.05 133.846 313.05 130.838C313.05 127.83 313.082 124.95 313.146 122.198C313.402 116.694 314.682 112.022 316.986 108.182C319.354 104.278 322.65 101.302 326.874 99.2538C331.098 97.2058 336.154 96.1818 342.042 96.1818C346.33 96.1818 350.234 96.7258 353.754 97.8138C357.274 98.9018 360.314 100.47 362.874 102.518C365.434 104.566 367.418 106.966 368.826 109.718C370.234 112.47 371.002 115.542 371.13 118.934C371.13 119.51 370.906 119.99 370.458 120.374C370.074 120.758 369.594 120.95 369.018 120.95H358.074C357.306 120.95 356.698 120.758 356.25 120.374C355.802 119.99 355.45 119.35 355.194 118.454C354.234 114.678 352.634 112.086 350.394 110.678C348.154 109.27 345.37 108.566 342.042 108.566C338.074 108.566 334.938 109.654 332.634 111.83C330.33 114.006 329.082 117.622 328.89 122.678C328.698 127.926 328.698 133.302 328.89 138.806C329.082 143.862 330.33 147.478 332.634 149.654C334.938 151.83 338.074 152.918 342.042 152.918C345.37 152.918 348.154 152.214 350.394 150.806C352.698 149.334 354.298 146.742 355.194 143.03C355.45 142.07 355.802 141.43 356.25 141.11C356.698 140.726 357.306 140.534 358.074 140.534H369.018C369.594 140.534 370.074 140.726 370.458 141.11C370.906 141.494 371.13 141.974 371.13 142.55C371.002 145.942 370.234 149.014 368.826 151.766C367.418 154.518 365.434 156.918 362.874 158.966C360.314 161.014 357.274 162.582 353.754 163.67C350.234 164.758 346.33 165.302 342.042 165.302ZM384.317 164.342C383.613 164.342 383.037 164.118 382.589 163.67C382.141 163.222 381.917 162.646 381.917 161.942V99.5418C381.917 98.8378 382.141 98.2618 382.589 97.8138C383.037 97.3658 383.613 97.1418 384.317 97.1418H427.805C428.509 97.1418 429.085 97.3658 429.533 97.8138C429.981 98.2618 430.205 98.8378 430.205 99.5418V107.222C430.205 107.862 429.981 108.406 429.533 108.854C429.085 109.302 428.509 109.526 427.805 109.526H396.701V124.598H425.693C426.397 124.598 426.973 124.822 427.421 125.27C427.869 125.718 428.093 126.294 428.093 126.998V134.102C428.093 134.742 427.869 135.286 427.421 135.734C426.973 136.182 426.397 136.406 425.693 136.406H396.701V151.958H428.573C429.277 151.958 429.853 152.182 430.301 152.63C430.749 153.078 430.973 153.654 430.973 154.358V161.942C430.973 162.646 430.749 163.222 430.301 163.67C429.853 164.118 429.277 164.342 428.573 164.342H384.317ZM444.785 164.342C444.081 164.342 443.505 164.118 443.057 163.67C442.609 163.222 442.385 162.646 442.385 161.942V99.5418C442.385 98.8378 442.609 98.2618 443.057 97.8138C443.505 97.3658 444.081 97.1418 444.785 97.1418H453.521C454.481 97.1418 455.185 97.3658 455.633 97.8138C456.081 98.2618 456.369 98.6138 456.497 98.8698L482.129 138.902V99.5418C482.129 98.8378 482.353 98.2618 482.801 97.8138C483.249 97.3658 483.793 97.1418 484.433 97.1418H494.225C494.929 97.1418 495.505 97.3658 495.953 97.8138C496.401 98.2618 496.625 98.8378 496.625 99.5418V161.942C496.625 162.582 496.401 163.158 495.953 163.67C495.505 164.118 494.929 164.342 494.225 164.342H485.393C484.433 164.342 483.729 164.118 483.281 163.67C482.897 163.158 482.609 162.806 482.417 162.614L456.881 123.83V161.942C456.881 162.646 456.657 163.222 456.209 163.67C455.761 164.118 455.185 164.342 454.481 164.342H444.785ZM535.015 165.302C528.871 165.302 523.719 164.406 519.559 162.614C515.463 160.822 512.359 158.486 510.247 155.606C508.135 152.726 507.015 149.654 506.887 146.39C506.887 145.878 507.079 145.43 507.463 145.046C507.847 144.598 508.327 144.374 508.903 144.374H519.175C520.007 144.374 520.647 144.566 521.095 144.95C521.543 145.27 521.959 145.686 522.343 146.198C522.791 147.286 523.495 148.342 524.455 149.366C525.479 150.39 526.855 151.254 528.583 151.958C530.311 152.598 532.455 152.918 535.015 152.918C539.175 152.918 542.279 152.246 544.327 150.902C546.439 149.558 547.495 147.734 547.495 145.43C547.495 143.766 546.919 142.422 545.767 141.398C544.679 140.374 542.919 139.446 540.487 138.614C538.119 137.782 534.951 136.886 530.983 135.926C526.183 134.902 522.087 133.59 518.695 131.99C515.367 130.326 512.839 128.214 511.111 125.654C509.447 123.03 508.615 119.798 508.615 115.958C508.615 112.118 509.671 108.726 511.783 105.782C513.895 102.774 516.871 100.438 520.711 98.7738C524.551 97.0458 529.127 96.1818 534.439 96.1818C538.727 96.1818 542.503 96.7578 545.767 97.9098C549.095 99.0618 551.847 100.566 554.023 102.422C556.263 104.278 557.959 106.262 559.111 108.374C560.263 110.486 560.871 112.534 560.935 114.518C560.935 115.03 560.743 115.51 560.359 115.958C559.975 116.342 559.495 116.534 558.919 116.534H548.167C547.527 116.534 546.951 116.406 546.439 116.15C545.927 115.894 545.511 115.446 545.191 114.806C544.807 113.142 543.655 111.702 541.735 110.486C539.879 109.206 537.447 108.566 534.439 108.566C531.303 108.566 528.807 109.142 526.951 110.294C525.159 111.446 524.263 113.206 524.263 115.574C524.263 117.11 524.711 118.422 525.607 119.51C526.567 120.534 528.135 121.462 530.311 122.294C532.551 123.062 535.495 123.926 539.143 124.886C544.775 126.038 549.351 127.414 552.871 129.014C556.391 130.614 558.983 132.694 560.647 135.254C562.311 137.75 563.143 140.918 563.143 144.758C563.143 149.046 561.927 152.726 559.495 155.798C557.127 158.87 553.831 161.238 549.607 162.902C545.447 164.502 540.583 165.302 535.015 165.302ZM575.848 164.342C575.144 164.342 574.568 164.118 574.12 163.67C573.672 163.222 573.448 162.646 573.448 161.942V99.5418C573.448 98.8378 573.672 98.2618 574.12 97.8138C574.568 97.3658 575.144 97.1418 575.848 97.1418H619.336C620.04 97.1418 620.616 97.3658 621.064 97.8138C621.512 98.2618 621.736 98.8378 621.736 99.5418V107.222C621.736 107.862 621.512 108.406 621.064 108.854C620.616 109.302 620.04 109.526 619.336 109.526H588.232V124.598H617.224C617.928 124.598 618.504 124.822 618.952 125.27C619.4 125.718 619.624 126.294 619.624 126.998V134.102C619.624 134.742 619.4 135.286 618.952 135.734C618.504 136.182 617.928 136.406 617.224 136.406H588.232V151.958H620.104C620.808 151.958 621.384 152.182 621.832 152.63C622.28 153.078 622.504 153.654 622.504 154.358V161.942C622.504 162.646 622.28 163.222 621.832 163.67C621.384 164.118 620.808 164.342 620.104 164.342H575.848ZM657.504 164.342C656.864 164.342 656.288 164.118 655.776 163.67C655.328 163.222 655.104 162.646 655.104 161.942V99.5418C655.104 98.8378 655.328 98.2618 655.776 97.8138C656.288 97.3658 656.864 97.1418 657.504 97.1418H666.432C667.392 97.1418 668.096 97.3978 668.544 97.9098C669.056 98.4218 669.408 98.8058 669.6 99.0618L687.264 131.606L705.12 99.0618C705.248 98.8058 705.536 98.4218 705.984 97.9098C706.496 97.3978 707.232 97.1418 708.192 97.1418H717.12C717.824 97.1418 718.4 97.3658 718.848 97.8138C719.296 98.2618 719.52 98.8378 719.52 99.5418V161.942C719.52 162.646 719.296 163.222 718.848 163.67C718.4 164.118 717.824 164.342 717.12 164.342H707.328C706.688 164.342 706.144 164.118 705.696 163.67C705.248 163.222 705.024 162.646 705.024 161.942V123.158L692.832 146.006C692.512 146.582 692.096 147.094 691.584 147.542C691.072 147.99 690.4 148.214 689.568 148.214H685.056C684.224 148.214 683.552 147.99 683.04 147.542C682.528 147.094 682.112 146.582 681.792 146.006L669.6 123.158V161.942C669.6 162.646 669.376 163.222 668.928 163.67C668.48 164.118 667.936 164.342 667.296 164.342H657.504ZM736.16 164.342C735.456 164.342 734.88 164.118 734.432 163.67C733.984 163.222 733.76 162.646 733.76 161.942V99.5418C733.76 98.8378 733.984 98.2618 734.432 97.8138C734.88 97.3658 735.456 97.1418 736.16 97.1418H747.008C747.712 97.1418 748.288 97.3658 748.736 97.8138C749.184 98.2618 749.408 98.8378 749.408 99.5418V161.942C749.408 162.646 749.184 163.222 748.736 163.67C748.288 164.118 747.712 164.342 747.008 164.342H736.16ZM780.757 164.342C780.053 164.342 779.477 164.118 779.029 163.67C778.581 163.222 778.357 162.646 778.357 161.942V110.486H760.885C760.245 110.486 759.701 110.262 759.253 109.814C758.805 109.366 758.581 108.822 758.581 108.182V99.5418C758.581 98.8378 758.805 98.2618 759.253 97.8138C759.701 97.3658 760.245 97.1418 760.885 97.1418H811.189C811.893 97.1418 812.469 97.3658 812.917 97.8138C813.365 98.2618 813.589 98.8378 813.589 99.5418V108.182C813.589 108.822 813.365 109.366 812.917 109.814C812.469 110.262 811.893 110.486 811.189 110.486H793.813V161.942C793.813 162.646 793.589 163.222 793.141 163.67C792.693 164.118 792.117 164.342 791.413 164.342H780.757Z" fill="white"/>
<path d="M117 50C158.437 50 192 84.4114 192 126.897C191.996 143.009 187.064 158.714 177.898 171.801C168.733 184.889 155.795 194.7 140.906 199.853C137.156 200.622 135.75 198.219 135.75 196.2C135.75 193.605 135.844 185.339 135.844 175.054C135.844 167.845 133.5 163.231 130.781 160.828C147.469 158.905 165 152.369 165 122.86C165 114.401 162.094 107.577 157.312 102.194C158.062 100.271 160.687 92.3895 156.562 81.8161C156.562 81.8161 150.281 79.7015 135.938 89.6981C129.938 87.9679 123.563 87.1028 117.188 87.1028C110.813 87.1028 104.438 87.9679 98.4375 89.6981C84.0938 79.7976 77.8125 81.8161 77.8125 81.8161C73.6875 92.3895 76.3125 100.271 77.0625 102.194C72.2813 107.577 69.375 114.497 69.375 122.86C69.375 152.273 86.8125 158.905 103.5 160.828C101.344 162.75 99.375 166.115 98.7188 171.113C94.4063 173.131 83.625 176.399 76.875 164.769C75.4688 162.462 71.25 156.791 65.3438 156.887C59.0625 156.983 62.8125 160.539 65.4375 161.981C68.625 163.808 72.2813 170.632 73.125 172.843C74.625 177.168 79.5 185.435 98.3438 181.878C98.3438 188.319 98.4375 194.374 98.4375 196.2C98.4375 198.219 97.0313 200.526 93.2813 199.853C78.3435 194.755 65.3506 184.964 56.1458 171.869C46.9411 158.773 41.9917 143.039 42 126.897C42 84.4114 75.5625 50 117 50Z" fill="white"/>
</svg>
