<svg width="1000" height="250" viewBox="0 0 1000 250" fill="none" xmlns="http://www.w3.org/2000/svg">
<rect width="1000" height="250" rx="30" fill="black"/>
<rect width="1000" height="250" rx="30" fill="black"/>
<path d="M231.504 164.342C230.8 164.342 230.224 164.118 229.776 163.67C229.328 163.222 229.104 162.646 229.104 161.942V99.5418C229.104 98.8378 229.328 98.2618 229.776 97.8138C230.224 97.3658 230.8 97.1418 231.504 97.1418H257.712C262.896 97.1418 267.376 97.9418 271.152 99.5418C274.992 101.142 277.968 103.574 280.08 106.838C282.256 110.038 283.344 114.038 283.344 118.838C283.344 123.702 282.256 127.734 280.08 130.934C277.968 134.07 274.992 136.406 271.152 137.942C267.376 139.478 262.896 140.246 257.712 140.246H244.848V161.942C244.848 162.646 244.624 163.222 244.176 163.67C243.728 164.118 243.152 164.342 242.448 164.342H231.504ZM244.56 128.342H257.232C260.496 128.342 263.024 127.542 264.816 125.942C266.672 124.342 267.6 121.942 267.6 118.742C267.6 115.926 266.768 113.622 265.104 111.83C263.504 110.038 260.88 109.142 257.232 109.142H244.56V128.342ZM284.793 164.342C284.217 164.342 283.737 164.15 283.353 163.766C282.969 163.318 282.777 162.838 282.777 162.326C282.777 162.006 282.809 161.718 282.873 161.462L305.721 99.7338C305.913 99.0298 306.297 98.4218 306.873 97.9098C307.449 97.3978 308.249 97.1418 309.273 97.1418H321.561C322.585 97.1418 323.385 97.3978 323.961 97.9098C324.537 98.4218 324.921 99.0298 325.113 99.7338L347.961 161.462C348.025 161.718 348.057 162.006 348.057 162.326C348.057 162.838 347.865 163.318 347.481 163.766C347.097 164.15 346.617 164.342 346.041 164.342H336.057C335.097 164.342 334.393 164.118 333.945 163.67C333.497 163.222 333.209 162.806 333.081 162.422L328.953 151.67H301.881L297.753 162.422C297.625 162.806 297.337 163.222 296.889 163.67C296.441 164.118 295.737 164.342 294.777 164.342H284.793ZM305.433 139.286H325.305L315.417 111.638L305.433 139.286ZM366.569 164.342C365.865 164.342 365.289 164.118 364.841 163.67C364.393 163.222 364.169 162.646 364.169 161.942V110.486H346.697C346.057 110.486 345.513 110.262 345.065 109.814C344.617 109.366 344.393 108.822 344.393 108.182V99.5418C344.393 98.8378 344.617 98.2618 345.065 97.8138C345.513 97.3658 346.057 97.1418 346.697 97.1418H397.001C397.705 97.1418 398.281 97.3658 398.729 97.8138C399.177 98.2618 399.401 98.8378 399.401 99.5418V108.182C399.401 108.822 399.177 109.366 398.729 109.814C398.281 110.262 397.705 110.486 397.001 110.486H379.625V161.942C379.625 162.646 379.401 163.222 378.953 163.67C378.505 164.118 377.929 164.342 377.225 164.342H366.569ZM411.035 164.342C410.331 164.342 409.755 164.118 409.307 163.67C408.859 163.222 408.635 162.646 408.635 161.942V99.5418C408.635 98.8378 408.859 98.2618 409.307 97.8138C409.755 97.3658 410.331 97.1418 411.035 97.1418H436.475C444.475 97.1418 450.779 98.9978 455.387 102.71C459.995 106.358 462.299 111.638 462.299 118.55C462.299 123.222 461.179 127.126 458.939 130.262C456.699 133.398 453.691 135.734 449.915 137.27L463.451 161.27C463.643 161.654 463.739 162.006 463.739 162.326C463.739 162.838 463.547 163.318 463.163 163.766C462.779 164.15 462.299 164.342 461.723 164.342H451.067C449.915 164.342 449.051 164.054 448.475 163.478C447.899 162.838 447.483 162.262 447.227 161.75L435.515 139.766H423.899V161.942C423.899 162.646 423.675 163.222 423.227 163.67C422.779 164.118 422.203 164.342 421.499 164.342H411.035ZM423.899 127.574H436.187C439.707 127.574 442.299 126.774 443.963 125.174C445.691 123.574 446.555 121.334 446.555 118.454C446.555 115.574 445.723 113.302 444.059 111.638C442.395 109.974 439.771 109.142 436.187 109.142H423.899V127.574ZM476.473 164.342C475.769 164.342 475.193 164.118 474.745 163.67C474.297 163.222 474.073 162.646 474.073 161.942V99.5418C474.073 98.8378 474.297 98.2618 474.745 97.8138C475.193 97.3658 475.769 97.1418 476.473 97.1418H519.961C520.665 97.1418 521.241 97.3658 521.689 97.8138C522.137 98.2618 522.361 98.8378 522.361 99.5418V107.222C522.361 107.862 522.137 108.406 521.689 108.854C521.241 109.302 520.665 109.526 519.961 109.526H488.857V124.598H517.849C518.553 124.598 519.129 124.822 519.577 125.27C520.025 125.718 520.249 126.294 520.249 126.998V134.102C520.249 134.742 520.025 135.286 519.577 135.734C519.129 136.182 518.553 136.406 517.849 136.406H488.857V151.958H520.729C521.433 151.958 522.009 152.182 522.457 152.63C522.905 153.078 523.129 153.654 523.129 154.358V161.942C523.129 162.646 522.905 163.222 522.457 163.67C522.009 164.118 521.433 164.342 520.729 164.342H476.473ZM560.667 165.302C554.843 165.302 549.819 164.342 545.595 162.422C541.371 160.502 538.075 157.622 535.707 153.782C533.339 149.878 532.059 144.982 531.867 139.094C531.803 136.342 531.771 133.622 531.771 130.934C531.771 128.182 531.803 125.398 531.867 122.582C532.059 116.822 533.339 111.99 535.707 108.086C538.139 104.118 541.467 101.142 545.691 99.1578C549.979 97.1738 554.971 96.1818 560.667 96.1818C566.299 96.1818 571.227 97.1738 575.451 99.1578C579.739 101.142 583.099 104.118 585.531 108.086C587.963 111.99 589.243 116.822 589.371 122.582C589.499 125.398 589.563 128.182 589.563 130.934C589.563 133.622 589.499 136.342 589.371 139.094C589.179 144.982 587.899 149.878 585.531 153.782C583.163 157.622 579.867 160.502 575.643 162.422C571.419 164.342 566.427 165.302 560.667 165.302ZM560.667 152.918C564.379 152.918 567.419 151.798 569.787 149.558C572.219 147.254 573.499 143.606 573.627 138.614C573.755 135.798 573.819 133.174 573.819 130.742C573.819 128.246 573.755 125.622 573.627 122.87C573.563 119.542 572.955 116.822 571.803 114.71C570.651 112.598 569.115 111.062 567.195 110.102C565.339 109.078 563.163 108.566 560.667 108.566C558.171 108.566 555.963 109.078 554.043 110.102C552.123 111.062 550.587 112.598 549.435 114.71C548.347 116.822 547.739 119.542 547.611 122.87C547.547 125.622 547.515 128.246 547.515 130.742C547.515 133.174 547.547 135.798 547.611 138.614C547.803 143.606 549.083 147.254 551.451 149.558C553.819 151.798 556.891 152.918 560.667 152.918ZM603.879 164.342C603.175 164.342 602.599 164.118 602.151 163.67C601.703 163.222 601.479 162.646 601.479 161.942V99.5418C601.479 98.8378 601.703 98.2618 602.151 97.8138C602.599 97.3658 603.175 97.1418 603.879 97.1418H612.615C613.575 97.1418 614.279 97.3658 614.727 97.8138C615.175 98.2618 615.463 98.6138 615.591 98.8698L641.223 138.902V99.5418C641.223 98.8378 641.447 98.2618 641.895 97.8138C642.343 97.3658 642.887 97.1418 643.527 97.1418H653.319C654.023 97.1418 654.599 97.3658 655.047 97.8138C655.495 98.2618 655.719 98.8378 655.719 99.5418V161.942C655.719 162.582 655.495 163.158 655.047 163.67C654.599 164.118 654.023 164.342 653.319 164.342H644.487C643.527 164.342 642.823 164.118 642.375 163.67C641.991 163.158 641.703 162.806 641.511 162.614L615.975 123.83V161.942C615.975 162.646 615.751 163.222 615.303 163.67C614.855 164.118 614.279 164.342 613.575 164.342H603.879Z" fill="white"/>
<rect x="54.5" y="65" width="22.9592" height="119.898" rx="2" fill="white"/>
<circle cx="134.857" cy="109.643" r="44.6429" fill="white"/>
</svg>
