<svg width="2040" height="250" viewBox="0 0 2040 250" fill="none" xmlns="http://www.w3.org/2000/svg">
<rect width="2040" height="250" rx="30" fill="black"/>
<path d="M214.296 158.96C208.152 158.96 203 158.064 198.84 156.272C194.744 154.48 191.64 152.144 189.528 149.264C187.416 146.384 186.296 143.312 186.168 140.048C186.168 139.536 186.36 139.088 186.744 138.704C187.128 138.256 187.608 138.032 188.184 138.032H198.456C199.288 138.032 199.928 138.224 200.376 138.608C200.824 138.928 201.24 139.344 201.624 139.856C202.072 140.944 202.776 142 203.736 143.024C204.76 144.048 206.136 144.912 207.864 145.616C209.592 146.256 211.736 146.576 214.296 146.576C218.456 146.576 221.56 145.904 223.608 144.56C225.72 143.216 226.776 141.392 226.776 139.088C226.776 137.424 226.2 136.08 225.048 135.056C223.96 134.032 222.2 133.104 219.768 132.272C217.4 131.44 214.232 130.544 210.264 129.584C205.464 128.56 201.368 127.248 197.976 125.648C194.648 123.984 192.12 121.872 190.392 119.312C188.728 116.688 187.896 113.456 187.896 109.616C187.896 105.776 188.952 102.384 191.064 99.44C193.176 96.432 196.152 94.096 199.992 92.432C203.832 90.704 208.408 89.84 213.72 89.84C218.008 89.84 221.784 90.416 225.048 91.568C228.376 92.72 231.128 94.224 233.304 96.08C235.544 97.936 237.24 99.92 238.392 102.032C239.544 104.144 240.152 106.192 240.216 108.176C240.216 108.688 240.024 109.168 239.64 109.616C239.256 110 238.776 110.192 238.2 110.192H227.448C226.808 110.192 226.232 110.064 225.72 109.808C225.208 109.552 224.792 109.104 224.472 108.464C224.088 106.8 222.936 105.36 221.016 104.144C219.16 102.864 216.728 102.224 213.72 102.224C210.584 102.224 208.088 102.8 206.232 103.952C204.44 105.104 203.544 106.864 203.544 109.232C203.544 110.768 203.992 112.08 204.888 113.168C205.848 114.192 207.416 115.12 209.592 115.952C211.832 116.72 214.776 117.584 218.424 118.544C224.056 119.696 228.632 121.072 232.152 122.672C235.672 124.272 238.264 126.352 239.928 128.912C241.592 131.408 242.424 134.576 242.424 138.416C242.424 142.704 241.208 146.384 238.776 149.456C236.408 152.528 233.112 154.896 228.888 156.56C224.728 158.16 219.864 158.96 214.296 158.96ZM269.257 158C268.553 158 267.977 157.776 267.529 157.328C267.081 156.88 266.857 156.304 266.857 155.6V104.144H249.385C248.745 104.144 248.201 103.92 247.753 103.472C247.305 103.024 247.081 102.48 247.081 101.84V93.2C247.081 92.496 247.305 91.92 247.753 91.472C248.201 91.024 248.745 90.8 249.385 90.8H299.689C300.393 90.8 300.969 91.024 301.417 91.472C301.865 91.92 302.089 92.496 302.089 93.2V101.84C302.089 102.48 301.865 103.024 301.417 103.472C300.969 103.92 300.393 104.144 299.689 104.144H282.313V155.6C282.313 156.304 282.089 156.88 281.641 157.328C281.193 157.776 280.617 158 279.913 158H269.257ZM300.449 158C299.873 158 299.393 157.808 299.009 157.424C298.625 156.976 298.433 156.496 298.433 155.984C298.433 155.664 298.465 155.376 298.529 155.12L321.377 93.392C321.569 92.688 321.953 92.08 322.529 91.568C323.105 91.056 323.905 90.8 324.929 90.8H337.217C338.241 90.8 339.041 91.056 339.617 91.568C340.193 92.08 340.577 92.688 340.769 93.392L363.617 155.12C363.681 155.376 363.713 155.664 363.713 155.984C363.713 156.496 363.521 156.976 363.137 157.424C362.753 157.808 362.273 158 361.697 158H351.713C350.753 158 350.049 157.776 349.601 157.328C349.153 156.88 348.865 156.464 348.737 156.08L344.609 145.328H317.537L313.409 156.08C313.281 156.464 312.993 156.88 312.545 157.328C312.097 157.776 311.393 158 310.433 158H300.449ZM321.089 132.944H340.961L331.073 105.296L321.089 132.944ZM382.226 158C381.522 158 380.946 157.776 380.498 157.328C380.05 156.88 379.826 156.304 379.826 155.6V104.144H362.354C361.714 104.144 361.17 103.92 360.722 103.472C360.274 103.024 360.05 102.48 360.05 101.84V93.2C360.05 92.496 360.274 91.92 360.722 91.472C361.17 91.024 361.714 90.8 362.354 90.8H412.658C413.362 90.8 413.938 91.024 414.385 91.472C414.834 91.92 415.058 92.496 415.058 93.2V101.84C415.058 102.48 414.834 103.024 414.385 103.472C413.938 103.92 413.362 104.144 412.658 104.144H395.282V155.6C395.282 156.304 395.058 156.88 394.61 157.328C394.162 157.776 393.586 158 392.882 158H382.226ZM448.296 158.96C442.152 158.96 437 158.064 432.84 156.272C428.744 154.48 425.64 152.144 423.528 149.264C421.416 146.384 420.296 143.312 420.168 140.048C420.168 139.536 420.36 139.088 420.744 138.704C421.128 138.256 421.608 138.032 422.184 138.032H432.456C433.288 138.032 433.928 138.224 434.376 138.608C434.824 138.928 435.24 139.344 435.624 139.856C436.072 140.944 436.776 142 437.736 143.024C438.76 144.048 440.136 144.912 441.864 145.616C443.592 146.256 445.736 146.576 448.296 146.576C452.456 146.576 455.56 145.904 457.608 144.56C459.72 143.216 460.776 141.392 460.776 139.088C460.776 137.424 460.2 136.08 459.048 135.056C457.96 134.032 456.2 133.104 453.768 132.272C451.4 131.44 448.232 130.544 444.264 129.584C439.464 128.56 435.368 127.248 431.976 125.648C428.648 123.984 426.12 121.872 424.392 119.312C422.728 116.688 421.896 113.456 421.896 109.616C421.896 105.776 422.952 102.384 425.064 99.44C427.176 96.432 430.152 94.096 433.992 92.432C437.832 90.704 442.408 89.84 447.72 89.84C452.008 89.84 455.784 90.416 459.048 91.568C462.376 92.72 465.128 94.224 467.304 96.08C469.544 97.936 471.24 99.92 472.392 102.032C473.544 104.144 474.152 106.192 474.216 108.176C474.216 108.688 474.024 109.168 473.64 109.616C473.256 110 472.776 110.192 472.2 110.192H461.448C460.808 110.192 460.232 110.064 459.72 109.808C459.208 109.552 458.792 109.104 458.472 108.464C458.088 106.8 456.936 105.36 455.016 104.144C453.16 102.864 450.728 102.224 447.72 102.224C444.584 102.224 442.088 102.8 440.232 103.952C438.44 105.104 437.544 106.864 437.544 109.232C437.544 110.768 437.992 112.08 438.888 113.168C439.848 114.192 441.416 115.12 443.592 115.952C445.832 116.72 448.776 117.584 452.424 118.544C458.056 119.696 462.632 121.072 466.152 122.672C469.672 124.272 472.264 126.352 473.928 128.912C475.592 131.408 476.424 134.576 476.424 138.416C476.424 142.704 475.208 146.384 472.776 149.456C470.408 152.528 467.112 154.896 462.888 156.56C458.728 158.16 453.864 158.96 448.296 158.96ZM534.605 158.96C528.589 158.96 523.469 157.968 519.245 155.984C515.085 153.936 511.853 150.992 509.549 147.152C507.245 143.248 505.965 138.512 505.709 132.944C505.645 130.32 505.613 127.504 505.613 124.496C505.613 121.488 505.645 118.608 505.709 115.856C505.965 110.352 507.245 105.68 509.549 101.84C511.917 97.936 515.213 94.96 519.437 92.912C523.661 90.864 528.717 89.84 534.605 89.84C538.893 89.84 542.797 90.384 546.317 91.472C549.837 92.56 552.877 94.128 555.437 96.176C557.997 98.224 559.981 100.624 561.389 103.376C562.797 106.128 563.565 109.2 563.693 112.592C563.693 113.168 563.469 113.648 563.021 114.032C562.637 114.416 562.157 114.608 561.581 114.608H550.637C549.869 114.608 549.261 114.416 548.812 114.032C548.365 113.648 548.013 113.008 547.757 112.112C546.797 108.336 545.197 105.744 542.957 104.336C540.717 102.928 537.933 102.224 534.605 102.224C530.637 102.224 527.501 103.312 525.197 105.488C522.893 107.664 521.645 111.28 521.453 116.336C521.261 121.584 521.261 126.96 521.453 132.464C521.645 137.52 522.893 141.136 525.197 143.312C527.501 145.488 530.637 146.576 534.605 146.576C537.933 146.576 540.717 145.872 542.957 144.464C545.261 142.992 546.861 140.4 547.757 136.688C548.013 135.728 548.365 135.088 548.812 134.768C549.261 134.384 549.869 134.192 550.637 134.192H561.581C562.157 134.192 562.637 134.384 563.021 134.768C563.469 135.152 563.693 135.632 563.693 136.208C563.565 139.6 562.797 142.672 561.389 145.424C559.981 148.176 557.997 150.576 555.437 152.624C552.877 154.672 549.837 156.24 546.317 157.328C542.797 158.416 538.893 158.96 534.605 158.96ZM591.663 158C590.959 158 590.383 157.776 589.935 157.328C589.487 156.88 589.263 156.304 589.263 155.6V104.144H571.791C571.151 104.144 570.607 103.92 570.159 103.472C569.711 103.024 569.487 102.48 569.487 101.84V93.2C569.487 92.496 569.711 91.92 570.159 91.472C570.607 91.024 571.151 90.8 571.791 90.8H622.095C622.799 90.8 623.375 91.024 623.823 91.472C624.271 91.92 624.495 92.496 624.495 93.2V101.84C624.495 102.48 624.271 103.024 623.823 103.472C623.375 103.92 622.799 104.144 622.095 104.144H604.719V155.6C604.719 156.304 604.495 156.88 604.047 157.328C603.599 157.776 603.023 158 602.319 158H591.663ZM636.129 158C635.425 158 634.849 157.776 634.401 157.328C633.953 156.88 633.729 156.304 633.729 155.6V93.2C633.729 92.496 633.953 91.92 634.401 91.472C634.849 91.024 635.425 90.8 636.129 90.8H679.617C680.321 90.8 680.897 91.024 681.345 91.472C681.793 91.92 682.017 92.496 682.017 93.2V100.88C682.017 101.52 681.793 102.064 681.345 102.512C680.897 102.96 680.321 103.184 679.617 103.184H648.513V118.256H677.505C678.209 118.256 678.785 118.48 679.233 118.928C679.681 119.376 679.905 119.952 679.905 120.656V127.76C679.905 128.4 679.681 128.944 679.233 129.392C678.785 129.84 678.209 130.064 677.505 130.064H648.513V145.616H680.385C681.089 145.616 681.665 145.84 682.113 146.288C682.561 146.736 682.785 147.312 682.785 148.016V155.6C682.785 156.304 682.561 156.88 682.113 157.328C681.665 157.776 681.089 158 680.385 158H636.129ZM690.262 158C689.686 158 689.206 157.808 688.822 157.424C688.438 156.976 688.246 156.496 688.246 155.984C688.246 155.664 688.278 155.376 688.342 155.12L711.19 93.392C711.382 92.688 711.766 92.08 712.342 91.568C712.918 91.056 713.718 90.8 714.742 90.8H727.03C728.054 90.8 728.854 91.056 729.43 91.568C730.006 92.08 730.39 92.688 730.582 93.392L753.43 155.12C753.494 155.376 753.526 155.664 753.526 155.984C753.526 156.496 753.334 156.976 752.95 157.424C752.566 157.808 752.086 158 751.51 158H741.526C740.566 158 739.862 157.776 739.414 157.328C738.966 156.88 738.678 156.464 738.55 156.08L734.422 145.328H707.35L703.222 156.08C703.094 156.464 702.806 156.88 702.358 157.328C701.91 157.776 701.206 158 700.246 158H690.262ZM710.902 132.944H730.774L720.886 105.296L710.902 132.944ZM772.038 158C771.334 158 770.758 157.776 770.31 157.328C769.862 156.88 769.638 156.304 769.638 155.6V104.144H752.166C751.526 104.144 750.982 103.92 750.534 103.472C750.086 103.024 749.862 102.48 749.862 101.84V93.2C749.862 92.496 750.086 91.92 750.534 91.472C750.982 91.024 751.526 90.8 752.166 90.8H802.47C803.174 90.8 803.75 91.024 804.198 91.472C804.646 91.92 804.87 92.496 804.87 93.2V101.84C804.87 102.48 804.646 103.024 804.198 103.472C803.75 103.92 803.174 104.144 802.47 104.144H785.094V155.6C785.094 156.304 784.87 156.88 784.422 157.328C783.974 157.776 783.398 158 782.694 158H772.038ZM816.504 158C815.8 158 815.224 157.776 814.776 157.328C814.328 156.88 814.104 156.304 814.104 155.6V93.2C814.104 92.496 814.328 91.92 814.776 91.472C815.224 91.024 815.8 90.8 816.504 90.8H859.992C860.696 90.8 861.272 91.024 861.72 91.472C862.168 91.92 862.392 92.496 862.392 93.2V100.88C862.392 101.52 862.168 102.064 861.72 102.512C861.272 102.96 860.696 103.184 859.992 103.184H828.888V118.256H857.88C858.584 118.256 859.16 118.48 859.608 118.928C860.056 119.376 860.28 119.952 860.28 120.656V127.76C860.28 128.4 860.056 128.944 859.608 129.392C859.16 129.84 858.584 130.064 857.88 130.064H828.888V145.616H860.76C861.464 145.616 862.04 145.84 862.488 146.288C862.936 146.736 863.16 147.312 863.16 148.016V155.6C863.16 156.304 862.936 156.88 862.488 157.328C862.04 157.776 861.464 158 860.76 158H816.504Z" fill="white"/>
<circle cx="1448" cy="125" r="30" fill="#00BE41"/>
<path d="M1511.17 158C1510.59 158 1510.11 157.808 1509.73 157.424C1509.34 156.976 1509.15 156.496 1509.15 155.984C1509.15 155.664 1509.18 155.376 1509.25 155.12L1532.1 93.392C1532.29 92.688 1532.67 92.08 1533.25 91.568C1533.82 91.056 1534.62 90.8 1535.65 90.8H1547.94C1548.96 90.8 1549.76 91.056 1550.34 91.568C1550.91 92.08 1551.3 92.688 1551.49 93.392L1574.34 155.12C1574.4 155.376 1574.43 155.664 1574.43 155.984C1574.43 156.496 1574.24 156.976 1573.86 157.424C1573.47 157.808 1572.99 158 1572.42 158H1562.43C1561.47 158 1560.77 157.776 1560.32 157.328C1559.87 156.88 1559.58 156.464 1559.46 156.08L1555.33 145.328H1528.26L1524.13 156.08C1524 156.464 1523.71 156.88 1523.26 157.328C1522.82 157.776 1522.11 158 1521.15 158H1511.17ZM1531.81 132.944H1551.68L1541.79 105.296L1531.81 132.944ZM1607.98 158.96C1601.96 158.96 1596.84 157.968 1592.62 155.984C1588.46 153.936 1585.23 150.992 1582.92 147.152C1580.62 143.248 1579.34 138.512 1579.08 132.944C1579.02 130.32 1578.99 127.504 1578.99 124.496C1578.99 121.488 1579.02 118.608 1579.08 115.856C1579.34 110.352 1580.62 105.68 1582.92 101.84C1585.29 97.936 1588.59 94.96 1592.81 92.912C1597.04 90.864 1602.09 89.84 1607.98 89.84C1612.27 89.84 1616.17 90.384 1619.69 91.472C1623.21 92.56 1626.25 94.128 1628.81 96.176C1631.37 98.224 1633.36 100.624 1634.76 103.376C1636.17 106.128 1636.94 109.2 1637.07 112.592C1637.07 113.168 1636.84 113.648 1636.4 114.032C1636.01 114.416 1635.53 114.608 1634.96 114.608H1624.01C1623.24 114.608 1622.64 114.416 1622.19 114.032C1621.74 113.648 1621.39 113.008 1621.13 112.112C1620.17 108.336 1618.57 105.744 1616.33 104.336C1614.09 102.928 1611.31 102.224 1607.98 102.224C1604.01 102.224 1600.88 103.312 1598.57 105.488C1596.27 107.664 1595.02 111.28 1594.83 116.336C1594.64 121.584 1594.64 126.96 1594.83 132.464C1595.02 137.52 1596.27 141.136 1598.57 143.312C1600.88 145.488 1604.01 146.576 1607.98 146.576C1611.31 146.576 1614.09 145.872 1616.33 144.464C1618.64 142.992 1620.24 140.4 1621.13 136.688C1621.39 135.728 1621.74 135.088 1622.19 134.768C1622.64 134.384 1623.24 134.192 1624.01 134.192H1634.96C1635.53 134.192 1636.01 134.384 1636.4 134.768C1636.84 135.152 1637.07 135.632 1637.07 136.208C1636.94 139.6 1636.17 142.672 1634.76 145.424C1633.36 148.176 1631.37 150.576 1628.81 152.624C1626.25 154.672 1623.21 156.24 1619.69 157.328C1616.17 158.416 1612.27 158.96 1607.98 158.96ZM1665.04 158C1664.33 158 1663.76 157.776 1663.31 157.328C1662.86 156.88 1662.64 156.304 1662.64 155.6V104.144H1645.17C1644.53 104.144 1643.98 103.92 1643.53 103.472C1643.09 103.024 1642.86 102.48 1642.86 101.84V93.2C1642.86 92.496 1643.09 91.92 1643.53 91.472C1643.98 91.024 1644.53 90.8 1645.17 90.8H1695.47C1696.17 90.8 1696.75 91.024 1697.2 91.472C1697.65 91.92 1697.87 92.496 1697.87 93.2V101.84C1697.87 102.48 1697.65 103.024 1697.2 103.472C1696.75 103.92 1696.17 104.144 1695.47 104.144H1678.09V155.6C1678.09 156.304 1677.87 156.88 1677.42 157.328C1676.97 157.776 1676.4 158 1675.69 158H1665.04ZM1709.5 158C1708.8 158 1708.22 157.776 1707.78 157.328C1707.33 156.88 1707.1 156.304 1707.1 155.6V93.2C1707.1 92.496 1707.33 91.92 1707.78 91.472C1708.22 91.024 1708.8 90.8 1709.5 90.8H1720.35C1721.06 90.8 1721.63 91.024 1722.08 91.472C1722.53 91.92 1722.75 92.496 1722.75 93.2V155.6C1722.75 156.304 1722.53 156.88 1722.08 157.328C1721.63 157.776 1721.06 158 1720.35 158H1709.5ZM1756.31 158C1755.28 158 1754.45 157.744 1753.81 157.232C1753.24 156.656 1752.82 155.984 1752.56 155.216L1732.4 93.68C1732.34 93.36 1732.31 93.072 1732.31 92.816C1732.31 92.304 1732.5 91.856 1732.88 91.472C1733.27 91.024 1733.75 90.8 1734.32 90.8H1744.4C1745.36 90.8 1746.1 91.088 1746.61 91.664C1747.19 92.176 1747.54 92.656 1747.67 93.104L1762.64 140.048L1777.52 93.104C1777.72 92.656 1778.07 92.176 1778.58 91.664C1779.09 91.088 1779.83 90.8 1780.79 90.8H1790.87C1791.44 90.8 1791.92 91.024 1792.31 91.472C1792.69 91.856 1792.88 92.304 1792.88 92.816C1792.88 93.072 1792.85 93.36 1792.79 93.68L1772.63 155.216C1772.44 155.984 1772.02 156.656 1771.38 157.232C1770.8 157.744 1769.97 158 1768.88 158H1756.31ZM1804.85 158C1804.14 158 1803.57 157.776 1803.12 157.328C1802.67 156.88 1802.45 156.304 1802.45 155.6V93.2C1802.45 92.496 1802.67 91.92 1803.12 91.472C1803.57 91.024 1804.14 90.8 1804.85 90.8H1848.34C1849.04 90.8 1849.62 91.024 1850.06 91.472C1850.51 91.92 1850.74 92.496 1850.74 93.2V100.88C1850.74 101.52 1850.51 102.064 1850.06 102.512C1849.62 102.96 1849.04 103.184 1848.34 103.184H1817.23V118.256H1846.22C1846.93 118.256 1847.5 118.48 1847.95 118.928C1848.4 119.376 1848.62 119.952 1848.62 120.656V127.76C1848.62 128.4 1848.4 128.944 1847.95 129.392C1847.5 129.84 1846.93 130.064 1846.22 130.064H1817.23V145.616H1849.1C1849.81 145.616 1850.38 145.84 1850.83 146.288C1851.28 146.736 1851.5 147.312 1851.5 148.016V155.6C1851.5 156.304 1851.28 156.88 1850.83 157.328C1850.38 157.776 1849.81 158 1849.1 158H1804.85Z" fill="white"/>
</svg>
