<svg width="1000" height="250" viewBox="0 0 1000 250" fill="none" xmlns="http://www.w3.org/2000/svg">
<rect width="1000" height="250" rx="30" fill="black"/>
<path d="M231.504 164.342C230.8 164.342 230.224 164.118 229.776 163.67C229.328 163.222 229.104 162.646 229.104 161.942V99.5418C229.104 98.8378 229.328 98.2618 229.776 97.8138C230.224 97.3658 230.8 97.1418 231.504 97.1418H242.16C242.864 97.1418 243.44 97.3658 243.888 97.8138C244.336 98.2618 244.56 98.8378 244.56 99.5418V151.478H274.32C275.024 151.478 275.6 151.702 276.048 152.15C276.496 152.598 276.72 153.174 276.72 153.878V161.942C276.72 162.646 276.496 163.222 276.048 163.67C275.6 164.118 275.024 164.342 274.32 164.342H231.504ZM281.605 164.342C281.03 164.342 280.55 164.15 280.166 163.766C279.782 163.318 279.59 162.838 279.59 162.326C279.59 162.006 279.622 161.718 279.686 161.462L302.534 99.7338C302.726 99.0298 303.11 98.4218 303.686 97.9098C304.262 97.3978 305.062 97.1418 306.086 97.1418H318.374C319.398 97.1418 320.198 97.3978 320.774 97.9098C321.35 98.4218 321.734 99.0298 321.926 99.7338L344.774 161.462C344.838 161.718 344.87 162.006 344.87 162.326C344.87 162.838 344.678 163.318 344.294 163.766C343.91 164.15 343.43 164.342 342.854 164.342H332.87C331.91 164.342 331.206 164.118 330.758 163.67C330.31 163.222 330.022 162.806 329.894 162.422L325.766 151.67H298.694L294.566 162.422C294.438 162.806 294.15 163.222 293.702 163.67C293.254 164.118 292.55 164.342 291.59 164.342H281.605ZM302.246 139.286H322.118L312.23 111.638L302.246 139.286ZM363.382 164.342C362.678 164.342 362.102 164.118 361.654 163.67C361.206 163.222 360.982 162.646 360.982 161.942V110.486H343.51C342.87 110.486 342.326 110.262 341.878 109.814C341.43 109.366 341.206 108.822 341.206 108.182V99.5418C341.206 98.8378 341.43 98.2618 341.878 97.8138C342.326 97.3658 342.87 97.1418 343.51 97.1418H393.814C394.518 97.1418 395.094 97.3658 395.542 97.8138C395.99 98.2618 396.214 98.8378 396.214 99.5418V108.182C396.214 108.822 395.99 109.366 395.542 109.814C395.094 110.262 394.518 110.486 393.814 110.486H376.438V161.942C376.438 162.646 376.214 163.222 375.766 163.67C375.318 164.118 374.742 164.342 374.038 164.342H363.382ZM407.848 164.342C407.144 164.342 406.568 164.118 406.12 163.67C405.672 163.222 405.448 162.646 405.448 161.942V99.5418C405.448 98.8378 405.672 98.2618 406.12 97.8138C406.568 97.3658 407.144 97.1418 407.848 97.1418H451.336C452.04 97.1418 452.616 97.3658 453.064 97.8138C453.512 98.2618 453.736 98.8378 453.736 99.5418V107.222C453.736 107.862 453.512 108.406 453.064 108.854C452.616 109.302 452.04 109.526 451.336 109.526H420.232V124.598H449.224C449.928 124.598 450.504 124.822 450.952 125.27C451.4 125.718 451.624 126.294 451.624 126.998V134.102C451.624 134.742 451.4 135.286 450.952 135.734C450.504 136.182 449.928 136.406 449.224 136.406H420.232V151.958H452.104C452.808 151.958 453.384 152.182 453.832 152.63C454.28 153.078 454.504 153.654 454.504 154.358V161.942C454.504 162.646 454.28 163.222 453.832 163.67C453.384 164.118 452.808 164.342 452.104 164.342H407.848ZM490.109 165.302C483.965 165.302 478.813 164.406 474.653 162.614C470.557 160.822 467.453 158.486 465.341 155.606C463.229 152.726 462.109 149.654 461.98 146.39C461.98 145.878 462.173 145.43 462.557 145.046C462.941 144.598 463.421 144.374 463.997 144.374H474.269C475.101 144.374 475.741 144.566 476.189 144.95C476.637 145.27 477.053 145.686 477.437 146.198C477.885 147.286 478.589 148.342 479.549 149.366C480.573 150.39 481.949 151.254 483.677 151.958C485.405 152.598 487.549 152.918 490.109 152.918C494.269 152.918 497.373 152.246 499.421 150.902C501.533 149.558 502.589 147.734 502.589 145.43C502.589 143.766 502.013 142.422 500.861 141.398C499.773 140.374 498.013 139.446 495.581 138.614C493.213 137.782 490.045 136.886 486.077 135.926C481.277 134.902 477.181 133.59 473.789 131.99C470.461 130.326 467.933 128.214 466.205 125.654C464.541 123.03 463.709 119.798 463.709 115.958C463.709 112.118 464.765 108.726 466.877 105.782C468.989 102.774 471.965 100.438 475.805 98.7738C479.645 97.0458 484.221 96.1818 489.533 96.1818C493.821 96.1818 497.597 96.7578 500.861 97.9098C504.189 99.0618 506.941 100.566 509.117 102.422C511.357 104.278 513.053 106.262 514.205 108.374C515.357 110.486 515.965 112.534 516.029 114.518C516.029 115.03 515.837 115.51 515.453 115.958C515.069 116.342 514.589 116.534 514.013 116.534H503.261C502.621 116.534 502.045 116.406 501.533 116.15C501.021 115.894 500.605 115.446 500.285 114.806C499.901 113.142 498.749 111.702 496.829 110.486C494.973 109.206 492.541 108.566 489.533 108.566C486.397 108.566 483.901 109.142 482.045 110.294C480.253 111.446 479.357 113.206 479.357 115.574C479.357 117.11 479.805 118.422 480.701 119.51C481.661 120.534 483.229 121.462 485.405 122.294C487.645 123.062 490.589 123.926 494.237 124.886C499.869 126.038 504.445 127.414 507.965 129.014C511.485 130.614 514.077 132.694 515.741 135.254C517.405 137.75 518.237 140.918 518.237 144.758C518.237 149.046 517.021 152.726 514.589 155.798C512.221 158.87 508.925 161.238 504.701 162.902C500.541 164.502 495.677 165.302 490.109 165.302ZM545.069 164.342C544.365 164.342 543.789 164.118 543.341 163.67C542.893 163.222 542.669 162.646 542.669 161.942V110.486H525.197C524.557 110.486 524.013 110.262 523.565 109.814C523.117 109.366 522.893 108.822 522.893 108.182V99.5418C522.893 98.8378 523.117 98.2618 523.565 97.8138C524.013 97.3658 524.557 97.1418 525.197 97.1418H575.501C576.205 97.1418 576.781 97.3658 577.229 97.8138C577.677 98.2618 577.901 98.8378 577.901 99.5418V108.182C577.901 108.822 577.677 109.366 577.229 109.814C576.781 110.262 576.205 110.486 575.501 110.486H558.125V161.942C558.125 162.646 557.901 163.222 557.453 163.67C557.005 164.118 556.429 164.342 555.725 164.342H545.069Z" fill="white"/>
<path d="M117 50C158.437 50 192 84.4114 192 126.897C191.996 143.009 187.064 158.714 177.898 171.801C168.733 184.889 155.795 194.7 140.906 199.853C137.156 200.622 135.75 198.219 135.75 196.2C135.75 193.605 135.844 185.339 135.844 175.054C135.844 167.845 133.5 163.231 130.781 160.828C147.469 158.905 165 152.369 165 122.86C165 114.401 162.094 107.577 157.312 102.194C158.062 100.271 160.687 92.3895 156.562 81.8161C156.562 81.8161 150.281 79.7015 135.938 89.6981C129.938 87.9679 123.563 87.1028 117.188 87.1028C110.813 87.1028 104.438 87.9679 98.4375 89.6981C84.0938 79.7976 77.8125 81.8161 77.8125 81.8161C73.6875 92.3895 76.3125 100.271 77.0625 102.194C72.2813 107.577 69.375 114.497 69.375 122.86C69.375 152.273 86.8125 158.905 103.5 160.828C101.344 162.75 99.375 166.115 98.7188 171.113C94.4063 173.131 83.625 176.399 76.875 164.769C75.4688 162.462 71.25 156.791 65.3438 156.887C59.0625 156.983 62.8125 160.539 65.4375 161.981C68.625 163.808 72.2813 170.632 73.125 172.843C74.625 177.168 79.5 185.435 98.3438 181.878C98.3438 188.319 98.4375 194.374 98.4375 196.2C98.4375 198.219 97.0313 200.526 93.2813 199.853C78.3435 194.755 65.3506 184.964 56.1458 171.869C46.9411 158.773 41.9917 143.039 42 126.897C42 84.4114 75.5625 50 117 50Z" fill="white"/>
</svg>
