<svg width="2040" height="250" viewBox="0 0 2040 250" fill="none" xmlns="http://www.w3.org/2000/svg">
<rect width="2040" height="250" rx="30" fill="black"/>
<path d="M211.296 158.96C205.152 158.96 200 158.064 195.84 156.272C191.744 154.48 188.64 152.144 186.528 149.264C184.416 146.384 183.296 143.312 183.168 140.048C183.168 139.536 183.36 139.088 183.744 138.704C184.128 138.256 184.608 138.032 185.184 138.032H195.456C196.288 138.032 196.928 138.224 197.376 138.608C197.824 138.928 198.24 139.344 198.624 139.856C199.072 140.944 199.776 142 200.736 143.024C201.76 144.048 203.136 144.912 204.864 145.616C206.592 146.256 208.736 146.576 211.296 146.576C215.456 146.576 218.56 145.904 220.608 144.56C222.72 143.216 223.776 141.392 223.776 139.088C223.776 137.424 223.2 136.08 222.048 135.056C220.96 134.032 219.2 133.104 216.768 132.272C214.4 131.44 211.232 130.544 207.264 129.584C202.464 128.56 198.368 127.248 194.976 125.648C191.648 123.984 189.12 121.872 187.392 119.312C185.728 116.688 184.896 113.456 184.896 109.616C184.896 105.776 185.952 102.384 188.064 99.44C190.176 96.432 193.152 94.096 196.992 92.432C200.832 90.704 205.408 89.84 210.72 89.84C215.008 89.84 218.784 90.416 222.048 91.568C225.376 92.72 228.128 94.224 230.304 96.08C232.544 97.936 234.24 99.92 235.392 102.032C236.544 104.144 237.152 106.192 237.216 108.176C237.216 108.688 237.024 109.168 236.64 109.616C236.256 110 235.776 110.192 235.2 110.192H224.448C223.808 110.192 223.232 110.064 222.72 109.808C222.208 109.552 221.792 109.104 221.472 108.464C221.088 106.8 219.936 105.36 218.016 104.144C216.16 102.864 213.728 102.224 210.72 102.224C207.584 102.224 205.088 102.8 203.232 103.952C201.44 105.104 200.544 106.864 200.544 109.232C200.544 110.768 200.992 112.08 201.888 113.168C202.848 114.192 204.416 115.12 206.592 115.952C208.832 116.72 211.776 117.584 215.424 118.544C221.056 119.696 225.632 121.072 229.152 122.672C232.672 124.272 235.264 126.352 236.928 128.912C238.592 131.408 239.424 134.576 239.424 138.416C239.424 142.704 238.208 146.384 235.776 149.456C233.408 152.528 230.112 154.896 225.888 156.56C221.728 158.16 216.864 158.96 211.296 158.96ZM266.257 158C265.553 158 264.977 157.776 264.529 157.328C264.081 156.88 263.857 156.304 263.857 155.6V104.144H246.385C245.745 104.144 245.201 103.92 244.753 103.472C244.305 103.024 244.081 102.48 244.081 101.84V93.2C244.081 92.496 244.305 91.92 244.753 91.472C245.201 91.024 245.745 90.8 246.385 90.8H296.689C297.393 90.8 297.969 91.024 298.417 91.472C298.865 91.92 299.089 92.496 299.089 93.2V101.84C299.089 102.48 298.865 103.024 298.417 103.472C297.969 103.92 297.393 104.144 296.689 104.144H279.313V155.6C279.313 156.304 279.089 156.88 278.641 157.328C278.193 157.776 277.617 158 276.913 158H266.257ZM297.449 158C296.873 158 296.393 157.808 296.009 157.424C295.625 156.976 295.433 156.496 295.433 155.984C295.433 155.664 295.465 155.376 295.529 155.12L318.377 93.392C318.569 92.688 318.953 92.08 319.529 91.568C320.105 91.056 320.905 90.8 321.929 90.8H334.217C335.241 90.8 336.041 91.056 336.617 91.568C337.193 92.08 337.577 92.688 337.769 93.392L360.617 155.12C360.681 155.376 360.713 155.664 360.713 155.984C360.713 156.496 360.521 156.976 360.137 157.424C359.753 157.808 359.273 158 358.697 158H348.713C347.753 158 347.049 157.776 346.601 157.328C346.153 156.88 345.865 156.464 345.737 156.08L341.609 145.328H314.537L310.409 156.08C310.281 156.464 309.993 156.88 309.545 157.328C309.097 157.776 308.393 158 307.433 158H297.449ZM318.089 132.944H337.961L328.073 105.296L318.089 132.944ZM379.226 158C378.522 158 377.946 157.776 377.498 157.328C377.05 156.88 376.826 156.304 376.826 155.6V104.144H359.354C358.714 104.144 358.17 103.92 357.722 103.472C357.274 103.024 357.05 102.48 357.05 101.84V93.2C357.05 92.496 357.274 91.92 357.722 91.472C358.17 91.024 358.714 90.8 359.354 90.8H409.658C410.362 90.8 410.938 91.024 411.385 91.472C411.834 91.92 412.058 92.496 412.058 93.2V101.84C412.058 102.48 411.834 103.024 411.385 103.472C410.938 103.92 410.362 104.144 409.658 104.144H392.282V155.6C392.282 156.304 392.058 156.88 391.61 157.328C391.162 157.776 390.586 158 389.882 158H379.226ZM445.296 158.96C439.152 158.96 434 158.064 429.84 156.272C425.744 154.48 422.64 152.144 420.528 149.264C418.416 146.384 417.296 143.312 417.168 140.048C417.168 139.536 417.36 139.088 417.744 138.704C418.128 138.256 418.608 138.032 419.184 138.032H429.456C430.288 138.032 430.928 138.224 431.376 138.608C431.824 138.928 432.24 139.344 432.624 139.856C433.072 140.944 433.776 142 434.736 143.024C435.76 144.048 437.136 144.912 438.864 145.616C440.592 146.256 442.736 146.576 445.296 146.576C449.456 146.576 452.56 145.904 454.608 144.56C456.72 143.216 457.776 141.392 457.776 139.088C457.776 137.424 457.2 136.08 456.048 135.056C454.96 134.032 453.2 133.104 450.768 132.272C448.4 131.44 445.232 130.544 441.264 129.584C436.464 128.56 432.368 127.248 428.976 125.648C425.648 123.984 423.12 121.872 421.392 119.312C419.728 116.688 418.896 113.456 418.896 109.616C418.896 105.776 419.952 102.384 422.064 99.44C424.176 96.432 427.152 94.096 430.992 92.432C434.832 90.704 439.408 89.84 444.72 89.84C449.008 89.84 452.784 90.416 456.048 91.568C459.376 92.72 462.128 94.224 464.304 96.08C466.544 97.936 468.24 99.92 469.392 102.032C470.544 104.144 471.152 106.192 471.216 108.176C471.216 108.688 471.024 109.168 470.64 109.616C470.256 110 469.776 110.192 469.2 110.192H458.448C457.808 110.192 457.232 110.064 456.72 109.808C456.208 109.552 455.792 109.104 455.472 108.464C455.088 106.8 453.936 105.36 452.016 104.144C450.16 102.864 447.728 102.224 444.72 102.224C441.584 102.224 439.088 102.8 437.232 103.952C435.44 105.104 434.544 106.864 434.544 109.232C434.544 110.768 434.992 112.08 435.888 113.168C436.848 114.192 438.416 115.12 440.592 115.952C442.832 116.72 445.776 117.584 449.424 118.544C455.056 119.696 459.632 121.072 463.152 122.672C466.672 124.272 469.264 126.352 470.928 128.912C472.592 131.408 473.424 134.576 473.424 138.416C473.424 142.704 472.208 146.384 469.776 149.456C467.408 152.528 464.112 154.896 459.888 156.56C455.728 158.16 450.864 158.96 445.296 158.96ZM531.605 158.96C525.589 158.96 520.469 157.968 516.245 155.984C512.085 153.936 508.853 150.992 506.549 147.152C504.245 143.248 502.965 138.512 502.709 132.944C502.645 130.32 502.613 127.504 502.613 124.496C502.613 121.488 502.645 118.608 502.709 115.856C502.965 110.352 504.245 105.68 506.549 101.84C508.917 97.936 512.213 94.96 516.437 92.912C520.661 90.864 525.717 89.84 531.605 89.84C535.893 89.84 539.797 90.384 543.317 91.472C546.837 92.56 549.877 94.128 552.437 96.176C554.997 98.224 556.981 100.624 558.389 103.376C559.797 106.128 560.565 109.2 560.693 112.592C560.693 113.168 560.469 113.648 560.021 114.032C559.637 114.416 559.157 114.608 558.581 114.608H547.637C546.869 114.608 546.261 114.416 545.812 114.032C545.365 113.648 545.013 113.008 544.757 112.112C543.797 108.336 542.197 105.744 539.957 104.336C537.717 102.928 534.933 102.224 531.605 102.224C527.637 102.224 524.501 103.312 522.197 105.488C519.893 107.664 518.645 111.28 518.453 116.336C518.261 121.584 518.261 126.96 518.453 132.464C518.645 137.52 519.893 141.136 522.197 143.312C524.501 145.488 527.637 146.576 531.605 146.576C534.933 146.576 537.717 145.872 539.957 144.464C542.261 142.992 543.861 140.4 544.757 136.688C545.013 135.728 545.365 135.088 545.812 134.768C546.261 134.384 546.869 134.192 547.637 134.192H558.581C559.157 134.192 559.637 134.384 560.021 134.768C560.469 135.152 560.693 135.632 560.693 136.208C560.565 139.6 559.797 142.672 558.389 145.424C556.981 148.176 554.997 150.576 552.437 152.624C549.877 154.672 546.837 156.24 543.317 157.328C539.797 158.416 535.893 158.96 531.605 158.96ZM573.879 158C573.175 158 572.599 157.776 572.151 157.328C571.703 156.88 571.479 156.304 571.479 155.6V93.2C571.479 92.496 571.703 91.92 572.151 91.472C572.599 91.024 573.175 90.8 573.879 90.8H599.319C607.319 90.8 613.623 92.656 618.231 96.368C622.839 100.016 625.143 105.296 625.143 112.208C625.143 116.88 624.023 120.784 621.783 123.92C619.543 127.056 616.535 129.392 612.759 130.928L626.295 154.928C626.487 155.312 626.583 155.664 626.583 155.984C626.583 156.496 626.391 156.976 626.007 157.424C625.623 157.808 625.143 158 624.567 158H613.911C612.759 158 611.895 157.712 611.319 157.136C610.743 156.496 610.327 155.92 610.071 155.408L598.359 133.424H586.743V155.6C586.743 156.304 586.519 156.88 586.071 157.328C585.623 157.776 585.047 158 584.343 158H573.879ZM586.743 121.232H599.031C602.551 121.232 605.143 120.432 606.807 118.832C608.535 117.232 609.399 114.992 609.399 112.112C609.399 109.232 608.567 106.96 606.903 105.296C605.239 103.632 602.615 102.8 599.031 102.8H586.743V121.232ZM639.317 158C638.613 158 638.037 157.776 637.589 157.328C637.141 156.88 636.917 156.304 636.917 155.6V93.2C636.917 92.496 637.141 91.92 637.589 91.472C638.037 91.024 638.613 90.8 639.317 90.8H682.805C683.509 90.8 684.085 91.024 684.533 91.472C684.981 91.92 685.205 92.496 685.205 93.2V100.88C685.205 101.52 684.981 102.064 684.533 102.512C684.085 102.96 683.509 103.184 682.805 103.184H651.701V118.256H680.693C681.397 118.256 681.973 118.48 682.421 118.928C682.869 119.376 683.093 119.952 683.093 120.656V127.76C683.093 128.4 682.869 128.944 682.421 129.392C681.973 129.84 681.397 130.064 680.693 130.064H651.701V145.616H683.573C684.277 145.616 684.853 145.84 685.301 146.288C685.749 146.736 685.973 147.312 685.973 148.016V155.6C685.973 156.304 685.749 156.88 685.301 157.328C684.853 157.776 684.277 158 683.573 158H639.317ZM693.449 158C692.873 158 692.393 157.808 692.009 157.424C691.625 156.976 691.433 156.496 691.433 155.984C691.433 155.664 691.465 155.376 691.529 155.12L714.377 93.392C714.569 92.688 714.953 92.08 715.529 91.568C716.105 91.056 716.905 90.8 717.929 90.8H730.217C731.241 90.8 732.041 91.056 732.617 91.568C733.193 92.08 733.577 92.688 733.769 93.392L756.617 155.12C756.681 155.376 756.713 155.664 756.713 155.984C756.713 156.496 756.521 156.976 756.137 157.424C755.753 157.808 755.273 158 754.697 158H744.713C743.753 158 743.049 157.776 742.601 157.328C742.153 156.88 741.865 156.464 741.737 156.08L737.609 145.328H710.537L706.409 156.08C706.281 156.464 705.993 156.88 705.545 157.328C705.097 157.776 704.393 158 703.433 158H693.449ZM714.089 132.944H733.961L724.073 105.296L714.089 132.944ZM775.226 158C774.522 158 773.946 157.776 773.498 157.328C773.05 156.88 772.826 156.304 772.826 155.6V104.144H755.354C754.714 104.144 754.17 103.92 753.722 103.472C753.274 103.024 753.05 102.48 753.05 101.84V93.2C753.05 92.496 753.274 91.92 753.722 91.472C754.17 91.024 754.714 90.8 755.354 90.8H805.658C806.362 90.8 806.938 91.024 807.385 91.472C807.834 91.92 808.058 92.496 808.058 93.2V101.84C808.058 102.48 807.834 103.024 807.385 103.472C806.938 103.92 806.362 104.144 805.658 104.144H788.282V155.6C788.282 156.304 788.058 156.88 787.61 157.328C787.162 157.776 786.586 158 785.882 158H775.226ZM819.692 158C818.988 158 818.412 157.776 817.964 157.328C817.516 156.88 817.292 156.304 817.292 155.6V93.2C817.292 92.496 817.516 91.92 817.964 91.472C818.412 91.024 818.988 90.8 819.692 90.8H863.18C863.884 90.8 864.46 91.024 864.908 91.472C865.356 91.92 865.58 92.496 865.58 93.2V100.88C865.58 101.52 865.356 102.064 864.908 102.512C864.46 102.96 863.884 103.184 863.18 103.184H832.076V118.256H861.068C861.772 118.256 862.348 118.48 862.796 118.928C863.244 119.376 863.468 119.952 863.468 120.656V127.76C863.468 128.4 863.244 128.944 862.796 129.392C862.348 129.84 861.772 130.064 861.068 130.064H832.076V145.616H863.948C864.652 145.616 865.228 145.84 865.676 146.288C866.124 146.736 866.348 147.312 866.348 148.016V155.6C866.348 156.304 866.124 156.88 865.676 157.328C865.228 157.776 864.652 158 863.948 158H819.692Z" fill="white"/>
<circle cx="1451" cy="125" r="30" fill="#00BE41"/>
<path d="M1514.17 158C1513.59 158 1513.11 157.808 1512.73 157.424C1512.34 156.976 1512.15 156.496 1512.15 155.984C1512.15 155.664 1512.18 155.376 1512.25 155.12L1535.1 93.392C1535.29 92.688 1535.67 92.08 1536.25 91.568C1536.82 91.056 1537.62 90.8 1538.65 90.8H1550.94C1551.96 90.8 1552.76 91.056 1553.34 91.568C1553.91 92.08 1554.3 92.688 1554.49 93.392L1577.34 155.12C1577.4 155.376 1577.43 155.664 1577.43 155.984C1577.43 156.496 1577.24 156.976 1576.86 157.424C1576.47 157.808 1575.99 158 1575.42 158H1565.43C1564.47 158 1563.77 157.776 1563.32 157.328C1562.87 156.88 1562.58 156.464 1562.46 156.08L1558.33 145.328H1531.26L1527.13 156.08C1527 156.464 1526.71 156.88 1526.26 157.328C1525.82 157.776 1525.11 158 1524.15 158H1514.17ZM1534.81 132.944H1554.68L1544.79 105.296L1534.81 132.944ZM1610.98 158.96C1604.96 158.96 1599.84 157.968 1595.62 155.984C1591.46 153.936 1588.23 150.992 1585.92 147.152C1583.62 143.248 1582.34 138.512 1582.08 132.944C1582.02 130.32 1581.99 127.504 1581.99 124.496C1581.99 121.488 1582.02 118.608 1582.08 115.856C1582.34 110.352 1583.62 105.68 1585.92 101.84C1588.29 97.936 1591.59 94.96 1595.81 92.912C1600.04 90.864 1605.09 89.84 1610.98 89.84C1615.27 89.84 1619.17 90.384 1622.69 91.472C1626.21 92.56 1629.25 94.128 1631.81 96.176C1634.37 98.224 1636.36 100.624 1637.76 103.376C1639.17 106.128 1639.94 109.2 1640.07 112.592C1640.07 113.168 1639.84 113.648 1639.4 114.032C1639.01 114.416 1638.53 114.608 1637.96 114.608H1627.01C1626.24 114.608 1625.64 114.416 1625.19 114.032C1624.74 113.648 1624.39 113.008 1624.13 112.112C1623.17 108.336 1621.57 105.744 1619.33 104.336C1617.09 102.928 1614.31 102.224 1610.98 102.224C1607.01 102.224 1603.88 103.312 1601.57 105.488C1599.27 107.664 1598.02 111.28 1597.83 116.336C1597.64 121.584 1597.64 126.96 1597.83 132.464C1598.02 137.52 1599.27 141.136 1601.57 143.312C1603.88 145.488 1607.01 146.576 1610.98 146.576C1614.31 146.576 1617.09 145.872 1619.33 144.464C1621.64 142.992 1623.24 140.4 1624.13 136.688C1624.39 135.728 1624.74 135.088 1625.19 134.768C1625.64 134.384 1626.24 134.192 1627.01 134.192H1637.96C1638.53 134.192 1639.01 134.384 1639.4 134.768C1639.84 135.152 1640.07 135.632 1640.07 136.208C1639.94 139.6 1639.17 142.672 1637.76 145.424C1636.36 148.176 1634.37 150.576 1631.81 152.624C1629.25 154.672 1626.21 156.24 1622.69 157.328C1619.17 158.416 1615.27 158.96 1610.98 158.96ZM1668.04 158C1667.33 158 1666.76 157.776 1666.31 157.328C1665.86 156.88 1665.64 156.304 1665.64 155.6V104.144H1648.17C1647.53 104.144 1646.98 103.92 1646.53 103.472C1646.09 103.024 1645.86 102.48 1645.86 101.84V93.2C1645.86 92.496 1646.09 91.92 1646.53 91.472C1646.98 91.024 1647.53 90.8 1648.17 90.8H1698.47C1699.17 90.8 1699.75 91.024 1700.2 91.472C1700.65 91.92 1700.87 92.496 1700.87 93.2V101.84C1700.87 102.48 1700.65 103.024 1700.2 103.472C1699.75 103.92 1699.17 104.144 1698.47 104.144H1681.09V155.6C1681.09 156.304 1680.87 156.88 1680.42 157.328C1679.97 157.776 1679.4 158 1678.69 158H1668.04ZM1712.5 158C1711.8 158 1711.22 157.776 1710.78 157.328C1710.33 156.88 1710.1 156.304 1710.1 155.6V93.2C1710.1 92.496 1710.33 91.92 1710.78 91.472C1711.22 91.024 1711.8 90.8 1712.5 90.8H1723.35C1724.06 90.8 1724.63 91.024 1725.08 91.472C1725.53 91.92 1725.75 92.496 1725.75 93.2V155.6C1725.75 156.304 1725.53 156.88 1725.08 157.328C1724.63 157.776 1724.06 158 1723.35 158H1712.5ZM1759.31 158C1758.28 158 1757.45 157.744 1756.81 157.232C1756.24 156.656 1755.82 155.984 1755.56 155.216L1735.4 93.68C1735.34 93.36 1735.31 93.072 1735.31 92.816C1735.31 92.304 1735.5 91.856 1735.88 91.472C1736.27 91.024 1736.75 90.8 1737.32 90.8H1747.4C1748.36 90.8 1749.1 91.088 1749.61 91.664C1750.19 92.176 1750.54 92.656 1750.67 93.104L1765.64 140.048L1780.52 93.104C1780.72 92.656 1781.07 92.176 1781.58 91.664C1782.09 91.088 1782.83 90.8 1783.79 90.8H1793.87C1794.44 90.8 1794.92 91.024 1795.31 91.472C1795.69 91.856 1795.88 92.304 1795.88 92.816C1795.88 93.072 1795.85 93.36 1795.79 93.68L1775.63 155.216C1775.44 155.984 1775.02 156.656 1774.38 157.232C1773.8 157.744 1772.97 158 1771.88 158H1759.31ZM1807.85 158C1807.14 158 1806.57 157.776 1806.12 157.328C1805.67 156.88 1805.45 156.304 1805.45 155.6V93.2C1805.45 92.496 1805.67 91.92 1806.12 91.472C1806.57 91.024 1807.14 90.8 1807.85 90.8H1851.34C1852.04 90.8 1852.62 91.024 1853.06 91.472C1853.51 91.92 1853.74 92.496 1853.74 93.2V100.88C1853.74 101.52 1853.51 102.064 1853.06 102.512C1852.62 102.96 1852.04 103.184 1851.34 103.184H1820.23V118.256H1849.22C1849.93 118.256 1850.5 118.48 1850.95 118.928C1851.4 119.376 1851.62 119.952 1851.62 120.656V127.76C1851.62 128.4 1851.4 128.944 1850.95 129.392C1850.5 129.84 1849.93 130.064 1849.22 130.064H1820.23V145.616H1852.1C1852.81 145.616 1853.38 145.84 1853.83 146.288C1854.28 146.736 1854.5 147.312 1854.5 148.016V155.6C1854.5 156.304 1854.28 156.88 1853.83 157.328C1853.38 157.776 1852.81 158 1852.1 158H1807.85Z" fill="white"/>
</svg>
